<svg width="40px" height="40px" viewBox="0 0 40 40" version="1.1" xmlns="http://www.w3.org/2000/svg" xmlns:xlink="http://www.w3.org/1999/xlink">
  <!-- Generator: Sketch 55.2 (78181) - https://sketchapp.com -->
  <title>Logo - Product Picker Copy 2</title>
  <desc>Created with Sketch.</desc>
  <g id="Navigation" stroke="none" stroke-width="1" fill="none" fill-rule="evenodd">
    <g id="Logo---Product-Picker-Copy-2">
      <rect id="$Khoros" fill="#2525A5" x="0" y="0" width="40" height="40"></rect>
      <path d="M19.2558895,19.5320877 L19.2510154,19.5369618 C17.2282697,20.7798538 14.9033306,21.4329813 12.5247766,21.4329813 L12.5247766,21.4329813 L12.5247766,21.4329813 C11.7351747,21.4329813 11.0917953,20.7896019 11.0917953,20 C11.0917953,19.2103981 11.7351747,18.5670187 12.5247766,18.5670187 C17.866775,18.5670187 22.2437043,14.3655565 22.5312754,9.09179529 L25.4021121,9.09179529 C25.2217709,13.3858652 22.9553209,17.2558895 19.2558895,19.5320877 M25.4021121,30.9082047 L22.5312754,30.9082047 C22.3119415,26.8578392 19.679935,23.4411048 16.0487409,22.0714866 C16.0877335,22.0617384 16.1267262,22.0471162 16.170593,22.037368 C16.2534525,22.0129976 16.3363119,21.9935012 16.4191714,21.9691308 C16.4874086,21.9496344 16.5556458,21.9301381 16.6287571,21.9057677 C16.7116166,21.8813972 16.794476,21.8570268 16.8724614,21.8277823 C16.9406986,21.8034119 17.0089358,21.7839155 17.077173,21.7595451 C17.1600325,21.7303006 17.2380179,21.7010561 17.3208773,21.6718115 C17.3891145,21.6474411 17.4573517,21.6230707 17.525589,21.5938262 C17.6035743,21.5645816 17.6864338,21.530463 17.7644192,21.5012185 C17.8326564,21.471974 17.8960195,21.4476036 17.9642567,21.4183591 C18.0422421,21.3842405 18.1251015,21.3501219 18.2030869,21.3160032 C18.26645,21.2867587 18.3346872,21.2575142 18.3980504,21.2282697 C18.4760357,21.1941511 18.5540211,21.1551584 18.6320065,21.1161657 C18.6953696,21.0869212 18.7587327,21.0528026 18.8269699,21.018684 C18.9049553,20.9796913 18.9829407,20.9406986 19.056052,20.9017059 C19.1194151,20.8675873 19.1827782,20.8334687 19.2461413,20.7993501 C19.3241267,20.7554833 19.397238,20.7164907 19.4703493,20.6726239 C19.4898457,20.6628757 19.509342,20.6531275 19.5239643,20.6433794 C23.0625508,22.9341998 25.226645,26.7213647 25.4021121,30.9082047 M26.5036556,8.54589764 L26.5036556,8 L21.4541024,8 L21.4541024,8.54589764 C21.4541024,13.4687246 17.4476036,17.4752234 12.5247766,17.4752234 C11.130788,17.4752234 10,18.6060114 10,20 C10,21.3891145 11.130788,22.5247766 12.5247766,22.5247766 C12.5247766,22.5247766 12.5296507,22.5247766 12.5296507,22.5247766 C17.4524777,22.5296507 21.4541024,26.5312754 21.4541024,31.4541024 L21.4541024,32 L26.5036556,32 L26.5036556,31.4541024 C26.5036556,26.8432169 24.2859464,22.6222583 20.528026,20 C24.2859464,17.3777417 26.5036556,13.1567831 26.5036556,8.54589764" id="Logo" fill="#FFFFFF" fill-rule="nonzero"></path>
    </g>
  </g>
</svg>
